# 3ds Max Wavefront OBJ Exporter v0.97b - (c)2007 guruware
# File Created: 28.12.2015 11:29:35

#
# object F_Dagger_Pouch
#

v  -21.149178 90.574486 -0.363125
v  -21.363062 87.333870 -0.464966
v  -22.263243 87.684700 -0.693446
v  -22.099806 91.029266 -0.588520
v  -21.581455 98.166603 0.052951
v  -21.885473 94.644958 -0.316780
v  -22.616219 94.704704 0.632328
v  -22.406258 98.250168 1.148642
v  -22.682981 84.600105 0.235822
v  -22.831003 87.600563 0.106243
v  -22.176239 84.320740 -0.289992
v  -21.015228 103.951637 0.950912
v  -21.324978 101.039024 0.505005
v  -22.136078 101.162628 1.623541
v  -21.858536 104.062782 2.174764
v  -22.237608 90.627792 3.485982
v  -22.019146 94.133118 4.398295
v  -22.572634 94.501709 2.387514
v  -22.718250 90.932510 1.764636
v  -21.892069 103.789818 4.385952
v  -22.141670 100.901588 3.695421
v  -21.484383 100.426239 6.106815
v  -21.220657 103.281242 6.950408
v  -22.749155 91.091270 0.267431
v  -21.221439 90.229065 5.243797
v  -20.819574 93.638161 6.449302
v  -20.046871 99.770935 8.528257
v  -19.671061 102.555931 9.504013
v  -19.124393 96.480453 8.096209
v  -20.424604 96.980614 7.573776
v  -19.720087 93.093727 6.929029
v  -18.684656 99.316429 9.228338
v  -18.138474 102.062035 10.128992
v  -17.912182 99.296379 7.837782
v  -18.414244 96.508919 6.925650
v  -18.989035 93.163010 5.888378
v  -20.234953 89.783806 5.634661
v  -19.591047 89.757446 4.747474
v  -18.101141 99.612198 4.904340
v  -17.595537 102.462929 5.662250
v  -17.398369 102.081940 8.759333
v  -18.605619 96.746628 4.203954
v  -19.161011 93.311577 3.416000
v  -19.366802 97.190712 1.980811
v  -19.856768 93.680931 1.410655
v  -21.651867 82.522652 0.588801
v  -20.718365 86.723351 0.551838
v  -20.264071 86.506462 1.951358
v  -21.380259 82.268951 1.490183
v  -21.515108 84.156105 -0.141882
v  -20.832218 94.195564 -0.044755
v  -20.434671 97.751930 0.394829
v  -22.139120 82.535133 0.772478
v  -21.910360 82.295097 1.593539
v  -20.921984 83.393028 2.606135
v  -21.510065 83.415474 2.900945
v  -20.288370 86.407364 3.719997
v  -18.453489 102.979507 3.132738
v  -18.941191 100.099289 2.522866
v  -20.073923 100.676201 0.823520
v  -19.630383 103.576767 1.318078
v  -19.032635 106.890709 1.820114
v  -17.718765 106.295021 3.749658
v  -17.011162 105.667786 6.494098
v  -20.572691 107.216736 1.532679
v  -18.977608 107.740768 2.324397
v  -20.405602 107.901146 2.021765
v  -17.728313 107.201355 4.114639
v  -17.092710 106.585228 6.719722
v  -16.868408 105.207161 9.728731
v  -20.875515 86.407982 4.280555
v  -21.688353 86.522331 3.741483
v  -22.025953 83.955582 2.597408
v  -22.446819 86.993462 2.409879
v  -22.275419 83.347076 1.831392
v  -22.755886 87.341492 1.294281
v  -22.568037 83.716766 0.869009
v  -17.783869 105.057892 11.143467
v  -19.233538 105.677513 10.500937
v  -16.971338 106.137566 9.751982
v  -17.815187 106.095131 10.842356
v  -19.069958 106.542282 10.483063
v  -20.892265 106.468613 7.846784
v  -20.614771 107.314674 7.950184
v  -21.602110 107.025085 5.162341
v  -21.322536 107.810898 5.406681
v  -21.235071 108.108948 3.202068
v  -21.525265 107.322632 2.821683
v  -19.000601 106.471413 7.261057
v  -19.660721 107.026802 4.709659
v  -21.750145 97.558838 5.313340
v  -22.355043 97.996292 3.076996
v  -19.728029 89.807526 2.621148
v  -20.306826 90.106529 0.887468
# 94 vertices

vn 0.568547 0.004577 -0.822638
vn 0.552949 -0.066377 -0.830567
vn -0.350981 -0.020601 -0.936156
vn -0.324822 0.068665 -0.943280
vn -0.288192 0.146480 -0.946303
vn -0.306322 0.110627 -0.945478
vn -0.946349 0.084662 -0.311859
vn -0.946381 0.118250 -0.300632
vn -0.927656 -0.186180 -0.323716
vn -0.957927 -0.012966 -0.286720
vn -0.350981 -0.020601 -0.936156
vn -0.356392 -0.288317 -0.888739
vn -0.322918 0.186160 -0.927938
vn -0.310333 0.177769 -0.933859
vn -0.942463 0.136572 -0.305142
vn -0.940930 0.154120 -0.301492
vn -0.924485 -0.048065 0.378177
vn -0.924211 -0.034329 0.380336
vn -0.988669 0.022890 0.148358
vn -0.989149 0.005341 0.146818
vn -0.990184 0.057966 0.127181
vn -0.989499 0.050343 0.135486
vn -0.923622 -0.022123 0.382665
vn -0.922864 -0.019075 0.384654
vn -0.940930 0.154120 -0.301492
vn -0.942463 0.136572 -0.305142
vn -0.989499 0.050343 0.135486
vn -0.990184 0.057966 0.127181
vn -0.989149 0.005341 0.146818
vn -0.988669 0.022890 0.148358
vn -0.946349 0.084662 -0.311859
vn -0.948005 0.052646 -0.313872
vn -0.693005 -0.182360 0.697488
vn -0.698659 -0.154113 0.698659
vn -0.924211 -0.034329 0.380336
vn -0.924485 -0.048065 0.378177
vn -0.922864 -0.019075 0.384654
vn -0.923622 -0.022123 0.382665
vn -0.708169 -0.144952 0.691003
vn -0.680409 -0.144930 0.718358
vn 0.253691 -0.373860 0.892115
vn -0.690493 -0.160225 0.705371
vn -0.698659 -0.154113 0.698659
vn 0.200432 -0.360053 0.911147
vn -0.680409 -0.144930 0.718358
vn -0.708169 -0.144952 0.691003
vn 0.227275 -0.368368 0.901472
vn 0.296983 -0.341044 0.891903
vn 0.948664 -0.242602 0.202931
vn 0.227275 -0.368368 0.901472
vn 0.253691 -0.373860 0.892115
vn 0.946363 -0.240976 0.215239
vn 0.938373 -0.244893 0.243891
vn 0.200432 -0.360053 0.911147
vn 0.193693 -0.391583 0.899525
vn 0.926575 -0.269313 0.262542
vn 0.948664 -0.242602 0.202931
vn 0.969461 -0.118250 -0.214853
vn 0.970980 -0.118226 -0.207897
vn 0.952378 -0.230325 0.199818
vn 0.970623 -0.112890 -0.212479
vn 0.946363 -0.240976 0.215239
vn 0.938373 -0.244893 0.243891
vn 0.971525 -0.111380 -0.209124
vn 0.889469 -0.048059 -0.454461
vn 0.970623 -0.112890 -0.212479
vn 0.971525 -0.111380 -0.209124
vn 0.889475 -0.048822 -0.454368
vn 0.353799 -0.685462 -0.636371
vn 0.889737 -0.116749 -0.441291
vn 0.969814 -0.169360 -0.175439
vn 0.546373 -0.837111 0.026875
vn 0.591332 -0.279171 -0.756565
vn 0.552949 -0.066377 -0.830567
vn 0.889737 -0.116749 -0.441291
vn 0.353799 -0.685462 -0.636371
vn 0.889469 -0.048059 -0.454461
vn 0.889475 -0.048822 -0.454368
vn 0.583052 0.024413 -0.812068
vn 0.599417 0.035092 -0.799667
vn 0.599417 0.035092 -0.799667
vn 0.583052 0.024413 -0.812068
vn -0.306322 0.110627 -0.945478
vn -0.288192 0.146480 -0.946303
vn -0.641196 -0.685061 -0.345773
vn 0.353799 -0.685462 -0.636371
vn 0.546373 -0.837111 0.026875
vn -0.460837 -0.840035 0.286306
vn -0.356392 -0.288317 -0.888739
vn 0.591332 -0.279171 -0.756565
vn 0.353799 -0.685462 -0.636371
vn -0.641196 -0.685061 -0.345773
vn 0.546373 -0.837111 0.026875
vn 0.763957 -0.501931 0.405506
vn -0.189563 -0.531691 0.825452
vn -0.460837 -0.840035 0.286306
vn 0.969814 -0.169360 -0.175439
vn 0.873952 -0.315027 0.370090
vn 0.763957 -0.501931 0.405506
vn 0.546373 -0.837111 0.026875
vn 0.891458 -0.074018 -0.447017
vn 0.888191 -0.050351 -0.456707
vn 0.589691 0.051874 -0.805961
vn 0.591555 0.030522 -0.805687
vn 0.969461 -0.118250 -0.214853
vn 0.888191 -0.050351 -0.456707
vn 0.891458 -0.074018 -0.447017
vn 0.970980 -0.118226 -0.207897
vn 0.570452 0.210558 -0.793883
vn 0.912429 0.021361 -0.408676
vn 0.891458 -0.074018 -0.447017
vn 0.591555 0.030522 -0.805687
vn 0.891458 -0.074018 -0.447017
vn 0.912429 0.021361 -0.408676
vn 0.987877 -0.016023 -0.154409
vn 0.970980 -0.118226 -0.207897
vn 0.570452 0.210558 -0.793883
vn 0.591555 0.030522 -0.805687
vn -0.322918 0.186160 -0.927938
vn -0.289987 0.391482 -0.873298
vn 0.457746 0.819787 -0.344120
vn 0.570452 0.210558 -0.793883
vn -0.289987 0.391482 -0.873298
vn -0.099471 0.878854 -0.466605
vn -0.288192 0.146480 -0.946303
vn -0.310333 0.177769 -0.933859
vn 0.589691 0.051874 -0.805961
vn 0.599417 0.035092 -0.799667
vn 0.669865 0.736584 -0.093407
vn 0.912429 0.021361 -0.408676
vn 0.570452 0.210558 -0.793883
vn 0.457746 0.819787 -0.344120
vn 0.912429 0.021361 -0.408676
vn 0.669865 0.736584 -0.093407
vn 0.694508 0.718536 0.036947
vn 0.987877 -0.016023 -0.154409
vn 0.970980 -0.118226 -0.207897
vn 0.987877 -0.016023 -0.154409
vn 0.960273 -0.072473 0.269487
vn 0.952378 -0.230325 0.199818
vn -0.189563 -0.531691 0.825452
vn 0.763957 -0.501931 0.405506
vn 0.873952 -0.315027 0.370090
vn 0.053600 -0.394464 0.917347
vn -0.735073 -0.179239 0.653867
vn 0.053600 -0.394464 0.917347
vn 0.193693 -0.391583 0.899525
vn -0.693005 -0.182360 0.697488
vn -0.798213 -0.217486 0.561744
vn -0.735073 -0.179239 0.653867
vn -0.932287 -0.071700 0.354542
vn -0.888991 -0.282280 0.360574
vn -0.932287 -0.071700 0.354542
vn -0.986876 -0.035852 0.157447
vn -0.968588 -0.240335 -0.063851
vn -0.888991 -0.282280 0.360574
vn -0.927656 -0.186180 -0.323716
vn -0.968588 -0.240335 -0.063851
vn -0.986876 -0.035852 0.157447
vn -0.957927 -0.012966 -0.286720
vn -0.189563 -0.531691 0.825452
vn -0.798213 -0.217486 0.561744
vn -0.888991 -0.282280 0.360574
vn -0.460837 -0.840035 0.286306
vn -0.680409 -0.144930 0.718358
vn 0.296983 -0.341044 0.891903
vn 0.273501 -0.077053 0.958780
vn -0.623143 0.020600 0.781837
vn 0.273501 -0.077053 0.958780
vn 0.960273 -0.072473 0.269487
vn 0.716712 0.647082 0.260016
vn 0.288259 0.629553 0.721506
vn 0.273501 -0.077053 0.958780
vn 0.296983 -0.341044 0.891903
vn 0.952378 -0.230325 0.199818
vn 0.960273 -0.072473 0.269487
vn 0.987877 -0.016023 -0.154409
vn 0.694508 0.718536 0.036947
vn 0.716712 0.647082 0.260016
vn 0.960273 -0.072473 0.269487
vn 0.288259 0.629553 0.721506
vn -0.244118 0.732354 0.635660
vn -0.623143 0.020600 0.781837
vn 0.273501 -0.077053 0.958780
vn -0.680409 -0.144930 0.718358
vn -0.623143 0.020600 0.781837
vn -0.901212 0.109099 0.419421
vn -0.922864 -0.019075 0.384654
vn -0.358479 0.856228 0.371977
vn -0.901212 0.109099 0.419421
vn -0.623143 0.020600 0.781837
vn -0.244118 0.732354 0.635660
vn -0.974782 0.178481 0.133956
vn -0.990184 0.057966 0.127181
vn -0.922864 -0.019075 0.384654
vn -0.901212 0.109099 0.419421
vn -0.425478 0.881061 0.206642
vn -0.974782 0.178481 0.133956
vn -0.901212 0.109099 0.419421
vn -0.358479 0.856228 0.371977
vn -0.974782 0.178481 0.133956
vn -0.425478 0.881061 0.206642
vn -0.383498 0.919937 -0.081524
vn -0.894505 0.314384 -0.317841
vn -0.894505 0.314384 -0.317841
vn -0.940930 0.154120 -0.301492
vn -0.990184 0.057966 0.127181
vn -0.974782 0.178481 0.133956
vn -0.940930 0.154120 -0.301492
vn -0.894505 0.314384 -0.317841
vn -0.289987 0.391482 -0.873298
vn -0.322918 0.186160 -0.927938
vn -0.894505 0.314384 -0.317841
vn -0.383498 0.919937 -0.081524
vn -0.099471 0.878854 -0.466605
vn -0.289987 0.391482 -0.873298
vn -0.968588 -0.240335 -0.063851
vn -0.927656 -0.186180 -0.323716
vn -0.356392 -0.288317 -0.888739
vn -0.641196 -0.685061 -0.345773
vn -0.888991 -0.282280 0.360574
vn -0.968588 -0.240335 -0.063851
vn -0.641196 -0.685061 -0.345773
vn -0.460837 -0.840035 0.286306
vn -0.244118 0.732354 0.635660
vn 0.288259 0.629553 0.721506
vn 0.235052 0.966895 0.099320
vn -0.358479 0.856228 0.371977
vn 0.235052 0.966895 0.099320
vn 0.288259 0.629553 0.721506
vn 0.716712 0.647082 0.260016
vn 0.694508 0.718536 0.036947
vn -0.425478 0.881061 0.206642
vn -0.358479 0.856228 0.371977
vn 0.235052 0.966895 0.099320
vn 0.235044 0.953137 0.190484
vn 0.235044 0.953137 0.190484
vn 0.235052 0.966895 0.099320
vn 0.694508 0.718536 0.036947
vn 0.669865 0.736584 -0.093407
vn -0.383498 0.919937 -0.081524
vn -0.425478 0.881061 0.206642
vn 0.235044 0.953137 0.190484
vn -0.099471 0.878854 -0.466605
vn 0.235044 0.953137 0.190484
vn 0.669865 0.736584 -0.093407
vn 0.457746 0.819787 -0.344120
vn -0.099471 0.878854 -0.466605
vn 0.552949 -0.066377 -0.830567
vn 0.591332 -0.279171 -0.756565
vn -0.356392 -0.288317 -0.888739
vn -0.350981 -0.020601 -0.936156
vn -0.306322 0.110627 -0.945478
vn -0.324822 0.068665 -0.943280
vn -0.948005 0.052646 -0.313872
vn -0.946349 0.084662 -0.311859
vn -0.957927 -0.012966 -0.286720
vn -0.948005 0.052646 -0.313872
vn -0.324822 0.068665 -0.943280
vn -0.350981 -0.020601 -0.936156
vn -0.310333 0.177769 -0.933859
vn -0.288192 0.146480 -0.946303
vn -0.946381 0.118250 -0.300632
vn -0.942463 0.136572 -0.305142
vn -0.924211 -0.034329 0.380336
vn -0.924150 -0.024415 0.381248
vn -0.988327 0.039663 0.147091
vn -0.988669 0.022890 0.148358
vn -0.989499 0.050343 0.135486
vn -0.988327 0.039663 0.147091
vn -0.924150 -0.024415 0.381248
vn -0.923622 -0.022123 0.382665
vn -0.942463 0.136572 -0.305142
vn -0.946381 0.118250 -0.300632
vn -0.988327 0.039663 0.147091
vn -0.989499 0.050343 0.135486
vn -0.988669 0.022890 0.148358
vn -0.988327 0.039663 0.147091
vn -0.946381 0.118250 -0.300632
vn -0.946349 0.084662 -0.311859
vn -0.698659 -0.154113 0.698659
vn -0.690493 -0.160225 0.705371
vn -0.924150 -0.024415 0.381248
vn -0.924211 -0.034329 0.380336
vn -0.923622 -0.022123 0.382665
vn -0.924150 -0.024415 0.381248
vn -0.690493 -0.160225 0.705371
vn -0.708169 -0.144952 0.691003
vn -0.693005 -0.182360 0.697488
vn 0.193693 -0.391583 0.899525
vn 0.200432 -0.360053 0.911147
vn -0.698659 -0.154113 0.698659
vn -0.690493 -0.160225 0.705371
vn 0.253691 -0.373860 0.892115
vn 0.227275 -0.368368 0.901472
vn -0.708169 -0.144952 0.691003
vn 0.952378 -0.230325 0.199818
vn 0.296983 -0.341044 0.891903
vn 0.227275 -0.368368 0.901472
vn 0.948664 -0.242602 0.202931
vn 0.946363 -0.240976 0.215239
vn 0.253691 -0.373860 0.892115
vn 0.200432 -0.360053 0.911147
vn 0.938373 -0.244893 0.243891
vn 0.946363 -0.240976 0.215239
vn 0.970623 -0.112890 -0.212479
vn 0.969461 -0.118250 -0.214853
vn 0.948664 -0.242602 0.202931
vn 0.926575 -0.269313 0.262542
vn 0.973233 -0.121320 -0.195190
vn 0.971525 -0.111380 -0.209124
vn 0.938373 -0.244893 0.243891
vn 0.973233 -0.121320 -0.195190
vn 0.890563 -0.054170 -0.451623
vn 0.889475 -0.048822 -0.454368
vn 0.971525 -0.111380 -0.209124
vn 0.889737 -0.116749 -0.441291
vn 0.890563 -0.054170 -0.451623
vn 0.973233 -0.121320 -0.195190
vn 0.969814 -0.169360 -0.175439
vn 0.552949 -0.066377 -0.830567
vn 0.568547 0.004577 -0.822638
vn 0.890563 -0.054170 -0.451623
vn 0.889737 -0.116749 -0.441291
vn 0.889475 -0.048822 -0.454368
vn 0.890563 -0.054170 -0.451623
vn 0.568547 0.004577 -0.822638
vn 0.583052 0.024413 -0.812068
vn 0.583052 0.024413 -0.812068
vn 0.568547 0.004577 -0.822638
vn -0.324822 0.068665 -0.943280
vn -0.306322 0.110627 -0.945478
vn 0.973233 -0.121320 -0.195190
vn 0.926575 -0.269313 0.262542
vn 0.873952 -0.315027 0.370090
vn 0.969814 -0.169360 -0.175439
vn 0.888191 -0.050351 -0.456707
vn 0.889469 -0.048059 -0.454461
vn 0.599417 0.035092 -0.799667
vn 0.589691 0.051874 -0.805961
vn 0.970623 -0.112890 -0.212479
vn 0.889469 -0.048059 -0.454461
vn 0.888191 -0.050351 -0.456707
vn 0.969461 -0.118250 -0.214853
vn -0.310333 0.177769 -0.933859
vn -0.322918 0.186160 -0.927938
vn 0.591555 0.030522 -0.805687
vn 0.589691 0.051874 -0.805961
vn 0.926575 -0.269313 0.262542
vn 0.193693 -0.391583 0.899525
vn 0.053600 -0.394464 0.917347
vn 0.873952 -0.315027 0.370090
vn -0.798213 -0.217486 0.561744
vn -0.189563 -0.531691 0.825452
vn 0.053600 -0.394464 0.917347
vn -0.735073 -0.179239 0.653867
vn -0.735073 -0.179239 0.653867
vn -0.693005 -0.182360 0.697488
vn -0.924485 -0.048065 0.378177
vn -0.932287 -0.071700 0.354542
vn -0.924485 -0.048065 0.378177
vn -0.989149 0.005341 0.146818
vn -0.986876 -0.035852 0.157447
vn -0.932287 -0.071700 0.354542
vn -0.989149 0.005341 0.146818
vn -0.948005 0.052646 -0.313872
vn -0.957927 -0.012966 -0.286720
vn -0.986876 -0.035852 0.157447
# 368 vertex normals

vt 0.953302 0.158212 0.000000
vt 0.940695 0.101529 0.000000
vt 0.854402 0.696642 0.000000
vt 0.836313 0.758391 0.000000
vt 0.932373 0.535671 0.000000
vt 0.904374 0.581308 0.000000
vt 0.821909 0.810143 0.000000
vt 0.809388 0.862520 0.000000
vt 0.934705 0.653942 0.000000
vt 0.922005 0.716130 0.000000
vt 0.884839 0.706481 0.000000
vt 0.903053 0.645610 0.000000
vt 0.849251 0.872197 0.000000
vt 0.858829 0.820447 0.000000
vt 0.904281 0.831621 0.000000
vt 0.897170 0.883822 0.000000
vt 0.877077 0.636734 0.000000
vt 0.970907 0.661822 0.000000
vt 0.964985 0.725405 0.000000
vt 0.955962 0.842945 0.000000
vt 0.951765 0.896766 0.000000
vt 0.959775 0.789094 0.000000
vt 0.824641 0.342335 0.000000
vt 0.833687 0.288610 0.000000
vt 0.843441 0.225110 0.000000
vt 0.852535 0.161557 0.000000
vt 0.878771 0.338288 0.000000
vt 0.873013 0.391483 0.000000
vt 0.815926 0.396278 0.000000
vt 0.883693 0.284533 0.000000
vt 0.888511 0.220806 0.000000
vt 0.927610 0.284565 0.000000
vt 0.927917 0.220237 0.000000
vt 0.902254 0.021296 0.000000
vt 0.916638 0.096565 0.000000
vt 0.890024 0.097858 0.000000
vt 0.886927 0.020162 0.000000
vt 0.919832 0.047826 0.000000
vt 0.961180 0.222554 0.000000
vt 0.963967 0.287477 0.000000
vt 0.870681 0.043053 0.000000
vt 0.858354 0.099335 0.000000
vt 0.923028 0.391640 0.000000
vt 0.926216 0.338509 0.000000
vt 0.965194 0.341711 0.000000
vt 0.964398 0.395924 0.000000
vt 0.960594 0.456674 0.000000
vt 0.918757 0.452260 0.000000
vt 0.868165 0.451360 0.000000
vt 0.954575 0.471315 0.000000
vt 0.915989 0.467463 0.000000
vt 0.868162 0.467814 0.000000
vt 0.810482 0.455784 0.000000
vt 0.976317 0.592366 0.000000
vt 0.976751 0.542887 0.000000
vt 0.947703 0.589400 0.000000
vt 0.968251 0.527308 0.000000
vt 0.926076 0.586460 0.000000
vt 0.949413 0.526183 0.000000
vt 0.943146 0.954987 0.000000
vt 0.814030 0.470686 0.000000
vt 0.936190 0.966980 0.000000
vt 0.888122 0.941190 0.000000
vt 0.884691 0.954774 0.000000
vt 0.840485 0.929941 0.000000
vt 0.840449 0.943677 0.000000
vt 0.803281 0.936029 0.000000
vt 0.800409 0.921457 0.000000
vt 0.912056 0.778840 0.000000
vt 0.870274 0.768459 0.000000
vt 0.890503 0.157071 0.000000
vt 0.924232 0.156229 0.000000
vt 0.798751 0.800163 0.000000
vt 0.813497 0.748495 0.000000
vt 0.834715 0.687609 0.000000
vt 0.783472 0.853942 0.000000
vt 0.859756 0.627733 0.000000
vt 0.772458 0.919102 0.000000
vt 0.986698 0.788621 0.000000
vt 0.984922 0.845115 0.000000
vt 0.887807 0.574397 0.000000
vt 0.778901 0.940794 0.000000
vt 0.988675 0.723083 0.000000
vt 0.983005 0.900291 0.000000
vt 0.826648 0.974919 0.000000
vt 0.924232 0.524406 0.000000
vt 0.991609 0.659987 0.000000
vt 0.957688 0.505263 0.000000
vt 0.972061 0.962276 0.000000
vt 0.880066 0.988162 0.000000
vt 0.993288 0.595747 0.000000
vt 0.974636 0.507938 0.000000
vt 0.954117 0.981709 0.000000
vt 0.989640 0.536597 0.000000
vt 0.986802 0.290933 0.000000
vt 0.989608 0.344419 0.000000
vt 0.795589 0.343836 0.000000
vt 0.808695 0.288579 0.000000
vt 0.820285 0.223769 0.000000
vt 0.982166 0.226494 0.000000
vt 0.991475 0.399692 0.000000
vt 0.787492 0.398558 0.000000
vt 0.832717 0.161530 0.000000
vt 0.972686 0.161794 0.000000
vt 0.987203 0.465366 0.000000
vt 0.918698 0.502876 0.000000
vt 0.864248 0.503195 0.000000
vt 0.780860 0.460489 0.000000
vt 0.843848 0.097479 0.000000
vt 0.958670 0.102155 0.000000
vt 0.884343 0.012491 0.000000
vt 0.905020 0.013539 0.000000
vt 0.975457 0.485551 0.000000
vt 0.793435 0.482867 0.000000
vt 0.860180 0.038544 0.000000
vt 0.931703 0.044749 0.000000
# 116 texture coords

g F_Dagger_Pouch
s 1
f 1/1/1 2/2/2 3/110/3 4/104/4 
f 5/74/5 6/75/6 7/3/7 8/4/8 
f 9/5/9 10/6/10 3/81/11 11/86/12 
f 12/76/13 13/73/14 14/7/15 15/8/16 
f 16/9/17 17/10/18 18/11/19 19/12/20 
f 20/13/21 21/14/22 22/15/23 23/16/24 
f 15/8/25 14/7/26 21/14/27 20/13/28 
f 19/12/29 18/11/30 7/3/31 24/17/32 
f 25/18/33 26/19/34 17/10/35 16/9/36 
f 23/16/37 22/15/38 27/20/39 28/21/40 
f 29/79/41 30/22/42 26/19/43 31/83/44 
f 28/21/45 27/20/46 32/80/47 33/84/48 
f 34/23/49 32/97/50 29/98/51 35/24/52 
f 36/25/53 31/99/54 37/103/55 38/26/56 
f 34/23/57 39/27/58 40/28/59 41/29/60 
f 42/30/61 35/24/62 36/25/63 43/31/64 
f 44/32/65 42/30/66 43/31/67 45/33/68 
f 46/34/69 47/35/70 48/36/71 49/37/72 
f 50/38/73 2/2/74 47/35/75 46/34/76 
f 44/32/77 45/33/78 51/39/79 52/40/80 
f 52/40/81 51/39/82 6/100/83 5/95/84 
f 53/112/85 46/34/86 49/37/87 54/111/88 
f 11/116/89 50/38/90 46/34/91 53/112/92 
f 49/37/93 55/41/94 56/115/95 54/111/96 
f 48/36/97 57/42/98 55/41/99 49/37/100 
f 58/43/101 59/44/102 60/45/103 61/46/104 
f 39/27/105 59/44/106 58/43/107 40/28/108 
f 62/47/109 63/48/110 58/43/111 61/46/112 
f 58/43/113 63/48/114 64/49/115 40/28/116 
f 62/47/117 61/46/118 12/101/119 65/105/120 
f 66/50/121 62/47/122 65/105/123 67/113/124 
f 5/95/125 13/96/126 60/45/127 52/40/128 
f 68/51/129 63/48/130 62/47/131 66/50/132 
f 63/48/133 68/51/134 69/52/135 64/49/136 
f 40/28/137 64/49/138 70/53/139 41/29/140 
f 56/115/141 55/41/142 57/42/143 71/109/144 
f 72/54/145 71/91/146 37/87/147 25/18/148 
f 73/55/149 72/54/150 74/56/151 75/57/152 
f 74/56/153 76/58/154 77/59/155 75/57/156 
f 9/5/157 77/59/158 76/58/159 10/6/160 
f 56/94/161 73/55/162 75/57/163 54/92/164 
f 28/21/165 33/84/166 78/89/167 79/60/168 
f 78/108/169 70/53/170 80/61/171 81/114/172 
f 78/108/173 33/102/174 41/29/175 70/53/176 
f 64/49/177 69/52/178 80/61/179 70/53/180 
f 81/93/181 82/62/182 79/60/183 78/89/184 
f 28/21/185 79/60/186 83/63/187 23/16/188 
f 84/64/189 83/63/190 79/60/191 82/62/192 
f 85/65/193 20/13/194 23/16/195 83/63/196 
f 86/66/197 85/65/198 83/63/199 84/64/200 
f 85/65/201 86/66/202 87/67/203 88/68/204 
f 88/68/205 15/8/206 20/13/207 85/65/208 
f 15/8/209 88/68/210 65/78/211 12/76/212 
f 88/68/213 87/67/214 67/82/215 65/78/216 
f 77/59/217 9/5/218 11/86/219 53/88/220 
f 75/57/221 77/59/222 53/88/223 54/92/224 
f 82/62/225 81/93/226 89/90/227 84/64/228 
f 89/107/229 81/114/230 80/61/231 69/52/232 
f 86/66/233 84/64/234 89/90/235 90/85/236 
f 90/106/237 89/107/238 69/52/239 68/51/240 
f 87/67/241 86/66/242 90/85/243 67/82/244 
f 90/106/245 68/51/246 66/50/247 67/113/248 
f 2/2/249 50/38/250 11/116/251 3/110/252 
f 6/75/253 4/77/254 24/17/255 7/3/256 
f 10/6/257 24/17/258 4/77/259 3/81/260 
f 13/73/261 5/74/262 8/4/263 14/7/264 
f 17/10/265 91/69/266 92/70/267 18/11/268 
f 21/14/269 92/70/270 91/69/271 22/15/272 
f 14/7/273 8/4/274 92/70/275 21/14/276 
f 18/11/277 92/70/278 8/4/279 7/3/280 
f 26/19/281 30/22/282 91/69/283 17/10/284 
f 22/15/285 91/69/286 30/22/287 27/20/288 
f 25/18/289 37/87/290 31/83/291 26/19/292 
f 30/22/293 29/79/294 32/80/295 27/20/296 
f 41/29/297 33/102/298 32/97/299 34/23/300 
f 35/24/301 29/98/302 31/99/303 36/25/304 
f 35/24/305 42/30/306 39/27/307 34/23/308 
f 38/26/309 93/71/310 43/31/311 36/25/312 
f 93/71/313 94/72/314 45/33/315 43/31/316 
f 47/35/317 94/72/318 93/71/319 48/36/320 
f 2/2/321 1/1/322 94/72/323 47/35/324 
f 45/33/325 94/72/326 1/1/327 51/39/328 
f 51/39/329 1/1/330 4/104/331 6/100/332 
f 93/71/333 38/26/334 57/42/335 48/36/336 
f 59/44/337 44/32/338 52/40/339 60/45/340 
f 42/30/341 44/32/342 59/44/343 39/27/344 
f 13/96/345 12/101/346 61/46/347 60/45/348 
f 38/26/349 37/103/350 71/109/351 57/42/352 
f 73/55/353 56/94/354 71/91/355 72/54/356 
f 72/54/357 25/18/358 16/9/359 74/56/360 
f 16/9/361 19/12/362 76/58/363 74/56/364 
f 19/12/365 24/17/366 10/6/367 76/58/368 
# 92 polygons

